<svg width="19" height="18" viewBox="0 0 19 18" fill="none" xmlns="http://www.w3.org/2000/svg">
<g clip-path="url(#clip0_8_748)">
<path d="M7.9492 1.40032C5.25056 1.64427 2.79569 3.08521 1.33306 5.29053C-0.339002 7.80811 -0.438569 11.0706 1.07556 13.676C1.75537 14.847 2.76823 15.8943 3.93557 16.6294C5.05486 17.3319 6.29088 17.7678 7.70887 17.9597C8.11057 18.0118 9.46676 18.0151 9.8719 17.9597C12.0384 17.6735 13.8272 16.7888 15.2864 15.2894C16.4846 14.0598 17.2536 12.4855 17.518 10.716C17.5867 10.2639 17.5765 9.07992 17.4974 8.56925C17.4254 8.06508 17.2228 7.29094 17.0477 6.84206C16.8932 6.44198 16.4743 5.62555 16.2545 5.30029C15.5816 4.29521 14.6408 3.38446 13.6143 2.73718C13.1577 2.44768 12.2719 2.02809 11.7603 1.85569C10.5345 1.44586 9.2127 1.28647 7.9492 1.40032ZM9.77578 2.25903C10.9809 2.40865 12.1723 2.825 13.1336 3.43C14.8881 4.5359 16.1275 6.26634 16.5293 8.16916C16.6665 8.81319 16.6975 9.18725 16.6769 9.90284C16.6459 11.0706 16.4194 11.9488 15.8804 12.9929C14.7747 15.1332 12.6255 16.6587 10.1294 17.0751C9.58693 17.1661 8.49168 17.1986 7.96638 17.1434C6.39731 16.9742 4.91065 16.3789 3.73987 15.4519C2.18798 14.2224 1.21289 12.5375 0.945087 10.6249C0.879852 10.1435 0.879852 9.26857 0.941654 8.78066C1.31933 5.9118 3.4034 3.49505 6.28402 2.59081C6.80589 2.42492 7.2694 2.32408 7.77755 2.25903C8.26509 2.20049 9.2848 2.20049 9.77578 2.25903Z" fill="#F8BBD0"/>
<path d="M7.23696 6.42898C7.04468 6.54283 6.97601 6.85834 7.11335 7.01447C7.13738 7.04374 7.86182 7.652 8.72017 8.36433C9.57853 9.07667 10.2824 9.67517 10.2824 9.69143C10.2824 9.7077 9.57853 10.3062 8.72017 11.0185C7.86182 11.7309 7.13738 12.3391 7.10992 12.3684C7.08244 12.4009 7.05498 12.4985 7.04467 12.5863C7.03095 12.7392 7.03439 12.7555 7.16828 12.8791C7.28501 12.9897 7.32621 13.0092 7.45325 13.0092C7.54252 13.0092 7.64553 12.9831 7.70732 12.9474C7.8481 12.8628 11.2575 10.0297 11.3433 9.92562C11.4394 9.80853 11.4394 9.57433 11.3433 9.45724C11.2575 9.35315 7.8481 6.52006 7.70732 6.43549C7.58029 6.36068 7.36056 6.35743 7.23696 6.42898Z" fill="#F8BBD0"/>
</g>
<defs>
<clipPath id="clip0_8_748">
<rect width="19" height="18" fill="white"/>
</clipPath>
</defs>
</svg>
