<svg width="31" height="30" viewBox="0 0 31 30" fill="none" xmlns="http://www.w3.org/2000/svg">
<path d="M2.10697 3.13026H2.93386C3.19967 3.13026 3.41132 2.91861 3.41132 2.6528C3.41132 2.38722 3.19468 2.17557 2.92888 2.17557H2.10698C1.84117 2.17557 1.62952 2.38722 1.62952 2.65303C1.62952 2.91861 1.84116 3.13026 2.10698 3.13026H2.10697Z" fill="white"/>
<path d="M4.36601 3.13027H5.1929C5.45871 3.13027 5.67036 2.91863 5.67036 2.65281C5.67036 2.387 5.45871 2.17535 5.1929 2.17535H4.36601C4.1002 2.17535 3.88855 2.387 3.88855 2.65281C3.88855 2.91863 4.1002 3.13027 4.36601 3.13027Z" fill="white"/>
<path d="M6.62553 3.13027H7.45242C7.71823 3.13027 7.92988 2.91863 7.92988 2.65281C7.92988 2.387 7.71823 2.17535 7.45242 2.17535H6.62553C6.35972 2.17558 6.14807 2.38723 6.14807 2.65304C6.14807 2.91862 6.35972 3.13027 6.62553 3.13027Z" fill="white"/>
<path d="M14.5498 3.13027H23.8084C24.0742 3.13027 24.2859 2.91863 24.2859 2.65281C24.2859 2.387 24.0742 2.17535 23.8084 2.17535L14.5498 2.17558C14.284 2.17558 14.0724 2.38723 14.0724 2.65304C14.0724 2.91862 14.284 3.13027 14.5498 3.13027Z" fill="white"/>
<path d="M8.07233 7.02873C8.07233 6.76292 7.86068 6.55127 7.59487 6.55127H2.10673C1.84093 6.55127 1.62927 6.76292 1.62927 7.02873C1.62927 7.29454 1.84092 7.50619 2.10673 7.50619H7.59986C7.86068 7.50619 8.07233 7.29454 8.07233 7.02873Z" fill="white"/>
<path d="M2.10698 9.03707H4.24816C4.51397 9.03707 4.72562 8.82543 4.72562 8.55961C4.72562 8.29381 4.51398 8.08215 4.24816 8.08215H2.10698C1.84117 8.08215 1.62952 8.2938 1.62952 8.55961C1.62952 8.82542 1.84116 9.03707 2.10698 9.03707Z" fill="white"/>
<path d="M5.75419 8.08221C5.48839 8.08221 5.27673 8.29386 5.27673 8.55967C5.27673 8.82548 5.48838 9.03713 5.75419 9.03713H6.38413C6.64994 9.03713 6.86159 8.82549 6.86159 8.55967C6.86159 8.29387 6.64995 8.08221 6.38413 8.08221H5.75419Z" fill="white"/>
<path d="M5.14395 21.9132H7.38845C7.65426 21.9132 7.86591 21.7016 7.86591 21.4357L7.86568 16.1443C7.86568 15.8785 7.65404 15.6668 7.38823 15.6668H5.14372C4.87791 15.6668 4.66626 15.8785 4.66626 16.1443V21.4405C4.66649 21.7016 4.87813 21.9132 5.14395 21.9132V21.9132ZM5.62141 16.617H6.91099V20.9583H5.62141V16.617Z" fill="white"/>
<path d="M9.62809 11.7491C9.36229 11.7491 9.15063 11.9607 9.15063 12.2265V21.441C9.15063 21.7068 9.36228 21.9185 9.62809 21.9185H11.8726C12.1384 21.9185 12.3501 21.7068 12.3501 21.441L12.3498 12.2265C12.3498 11.9607 12.1382 11.7491 11.8724 11.7491H9.62809ZM11.3902 20.9583H10.1006V12.7039H11.3902V20.9583Z" fill="white"/>
<path d="M14.1119 15.6671C13.8461 15.6671 13.6344 15.8788 13.6344 16.1446V21.4408C13.6344 21.7066 13.846 21.9183 14.1119 21.9183H16.3564C16.6222 21.9183 16.8338 21.7067 16.8338 21.4408L16.8336 16.1446C16.8336 15.8788 16.6219 15.6671 16.3561 15.6671H14.1119ZM15.8739 20.9586H14.5844V16.6173H15.8739V20.9586Z" fill="white"/>
<path d="M20.7714 10.2037C21.0372 10.2037 21.2489 9.99202 21.2489 9.72621V7.64912C21.2489 7.58522 21.2342 7.52607 21.2144 7.46693C21.1653 7.34887 21.0717 7.25529 20.9584 7.21087C20.8992 7.18617 20.8403 7.17642 20.7762 7.17642H18.6993C18.4335 7.17642 18.2219 7.38807 18.2219 7.65388C18.2219 7.91969 18.4335 8.13134 18.6993 8.13134H19.6248L15.2687 12.4826L11.1194 8.33328C10.9422 8.15607 10.6222 8.15607 10.445 8.33328L5.92647 12.8518C5.73952 13.0388 5.73952 13.339 5.92647 13.5262C6.02006 13.6198 6.14311 13.664 6.26615 13.664C6.3892 13.664 6.51225 13.6198 6.60584 13.5262L10.7896 9.34238L14.9289 13.4917C15.1158 13.6787 15.4161 13.6787 15.6032 13.4917L20.2939 8.80102V9.72647C20.2939 9.98707 20.5106 10.2037 20.7714 10.2037L20.7714 10.2037Z" fill="white"/>
<path d="M31 16.3859C31 12.832 28.1108 9.94263 24.5619 9.94263C21.0081 9.94263 18.1187 12.8319 18.1187 16.3859C18.1187 19.221 19.9793 21.6871 22.5977 22.5188V27.9726C22.5977 29.0555 23.4788 29.9316 24.5617 29.9316C25.6446 29.9316 26.5207 29.0505 26.5207 27.9726V22.5186C29.1392 21.682 30.9998 19.2208 30.9998 16.3857L31 16.3859ZM25.571 27.9725C25.571 28.5285 25.1182 28.9766 24.5669 28.9766C24.0108 28.9766 23.5578 28.5238 23.5578 27.9725V22.7404C23.6119 22.7501 23.6611 22.7601 23.7153 22.7698C23.9908 22.8093 24.2813 22.829 24.5716 22.829C24.8571 22.829 25.1427 22.8093 25.4182 22.7698C25.4724 22.7649 25.5216 22.7501 25.5757 22.7404V27.9725H25.571ZM25.2805 21.825C24.808 21.8889 24.3108 21.8889 23.8334 21.825C21.1164 21.4706 19.0688 19.1325 19.0688 16.386C19.0688 13.3588 21.5299 10.8979 24.5569 10.8979C27.5841 10.8979 30.0401 13.3591 30.0401 16.386C30.0501 19.1275 28.0025 21.4656 25.2805 21.825Z" fill="white"/>
<path d="M24.562 11.8524C22.0616 11.8524 20.0287 13.8852 20.0287 16.3856C20.0287 16.6514 20.2403 16.8631 20.5061 16.8631C20.772 16.8631 20.9836 16.6514 20.9836 16.3856C20.9836 14.4119 22.5882 12.8073 24.562 12.8073C24.8278 12.8073 25.0394 12.5956 25.0394 12.3298C25.0394 12.064 24.8278 11.8524 24.562 11.8524Z" fill="white"/>
<path d="M21.1654 23.4691H2.03799C1.44245 23.4691 0.955041 22.9819 0.955041 22.3814V5.30116H25.029V8.5695C25.029 8.83531 25.2407 9.04696 25.5065 9.04696C25.7723 9.04696 25.984 8.83531 25.984 8.5695V4.83371V4.82396V4.81422L25.9842 2.04263C25.9842 0.915472 25.0687 0 23.9463 0H2.03787C0.915704 0 0 0.915472 0 2.04263V4.81381V4.82356V4.8333V22.3805C0 23.5076 0.915472 24.4231 2.03787 24.4231H21.1653C21.4311 24.4231 21.6427 24.2115 21.6427 23.9456C21.6427 23.6803 21.4261 23.4686 21.1653 23.4686L21.1654 23.4691ZM2.03799 0.954974H23.9412C24.5368 0.954974 25.0242 1.44217 25.0242 2.04268V4.34636H0.954809V2.04268C0.954809 1.44714 1.44201 0.954974 2.03753 0.954974H2.03799Z" fill="white"/>
</svg>
