<svg width="31" height="32" viewBox="0 0 31 32" fill="none" xmlns="http://www.w3.org/2000/svg">
<path d="M12.887 3.07383H18.1087C18.3705 3.07383 18.579 2.86536 18.579 2.60353C18.579 2.34171 18.3705 2.13324 18.1087 2.13324H12.887C12.6252 2.13324 12.4167 2.34171 12.4167 2.60353C12.4167 2.86536 12.6301 3.07383 12.887 3.07383Z" fill="white"/>
<path d="M18.1131 27.9603H12.8866C12.6247 27.9603 12.4163 28.1688 12.4163 28.4306C12.4163 28.6924 12.6247 28.9009 12.8866 28.9009H18.1082C18.37 28.9009 18.5785 28.6924 18.5785 28.4306C18.5834 28.1737 18.3701 27.9603 18.1131 27.9603Z" fill="white"/>
<path d="M11.0009 3.07383H11.6021C11.8639 3.07383 12.0723 2.86536 12.0723 2.60353C12.0723 2.34171 11.8639 2.13324 11.6021 2.13324H11.0009C10.7391 2.13324 10.5306 2.34171 10.5306 2.60353C10.5306 2.86536 10.7438 3.07383 11.0009 3.07383Z" fill="white"/>
<path d="M29.2887 6.3366H26.5348V2.71018C26.5348 1.21692 25.3179 0 23.8246 0H7.17559C5.68234 0 4.46542 1.21692 4.46542 2.71018V13.2697H1.71153C0.766026 13.2697 0 14.0407 0 14.986V20.9737C0 21.9192 0.77094 22.6899 1.71153 22.6899H4.46542V28.2946C4.46542 29.7879 5.68234 31.0048 7.17559 31.0048H23.8246C25.3179 31.0048 26.5348 29.7879 26.5348 28.2946L26.5346 15.7568H29.2885C30.234 15.7568 31 14.9859 31 14.0406V8.05287C31 7.1076 30.234 6.33666 29.2885 6.33666L29.2887 6.3366ZM5.40624 2.71018C5.40624 1.73564 6.20129 0.94059 7.17582 0.94059H23.8249C24.7994 0.94059 25.5944 1.73564 25.5944 2.71018V6.3366H24.1108V4.62998C24.1108 4.36817 23.9023 4.15969 23.6405 4.15969H7.36001C7.0982 4.15969 6.88972 4.36816 6.88972 4.62998V13.2696H5.40607L5.40624 2.71018ZM20.0336 6.3366C19.0881 6.3366 18.3174 7.10754 18.3174 8.05282V14.0406C18.3174 14.9861 19.0884 15.7568 20.0336 15.7568H20.1354V17.2646C20.1354 17.4391 20.2323 17.5991 20.3876 17.6815C20.4265 17.7009 20.4653 17.7154 20.5039 17.725C20.5184 17.7299 20.5283 17.7299 20.5428 17.7299C20.5622 17.7348 20.5863 17.7395 20.6057 17.7395H20.6202C20.6492 17.7395 20.6785 17.7346 20.7075 17.725C20.722 17.7201 20.7365 17.7201 20.751 17.7154C20.7945 17.7009 20.8334 17.6815 20.8722 17.6572L23.1753 16.0668V25.9139L7.83076 25.9141V23.0051L10.1289 24.5954C10.1677 24.6197 10.2066 24.6389 10.2501 24.6537C10.2646 24.6586 10.2791 24.6586 10.2936 24.6633C10.3226 24.6682 10.3519 24.6778 10.3809 24.6778H10.3954C10.4148 24.6778 10.4389 24.6729 10.4583 24.6682C10.4729 24.6682 10.4827 24.6682 10.4972 24.6633C10.536 24.6537 10.5749 24.6389 10.6135 24.6197C10.7686 24.5374 10.8657 24.3773 10.8657 24.2028V22.695H10.9675C11.913 22.695 12.6837 21.9241 12.6837 20.9788L12.6839 14.9859C12.6839 14.0404 11.913 13.2697 10.9677 13.2697H7.8308V5.1003H23.1707V6.33665L20.0336 6.3366ZM0.936133 20.9737V14.986C0.936133 14.5496 1.27541 14.2103 1.71176 14.2103H10.9622C11.3888 14.2103 11.7379 14.5594 11.7379 14.986V20.9737C11.7379 21.4003 11.3888 21.7493 10.9622 21.7493H10.3901C10.1283 21.7493 9.91985 21.9578 9.91985 22.2196V23.3008L7.79628 21.8317C7.71861 21.7784 7.62664 21.7493 7.52955 21.7493H1.71207C1.2853 21.7543 0.936219 21.4052 0.936219 20.9737L0.936133 20.9737ZM25.5946 28.2991C25.5946 29.2737 24.7995 30.0687 23.825 30.0687L7.17594 30.0689C6.2014 30.0689 5.40635 29.2739 5.40635 28.2994L5.40613 22.6898H6.88978V26.3744C6.88978 26.6313 7.09825 26.8447 7.36008 26.8447H23.6406C23.9024 26.8447 24.1109 26.6362 24.1109 26.3744V15.7566H25.5945L25.5946 28.2991ZM30.0647 14.0403C30.0647 14.4668 29.7156 14.8159 29.289 14.8159H23.4658C23.369 14.8159 23.2768 14.8449 23.1991 14.8983L21.0755 16.3674V15.2862C21.0755 15.0244 20.8671 14.8159 20.6052 14.8159H20.0332C19.6066 14.8159 19.2575 14.4668 19.2575 14.0403V8.05252C19.2575 7.62598 19.6066 7.2769 20.0332 7.2769H29.2836C29.7151 7.2769 30.0593 7.61617 30.0593 8.05252L30.0595 14.0403L30.0647 14.0403Z" fill="white"/>
<path d="M25.9139 8.14508C25.5599 8.14508 25.2157 8.23235 24.9104 8.39731C24.6051 8.23236 24.256 8.14508 23.9069 8.14508C22.7434 8.14508 21.7979 9.09059 21.7979 10.2541C21.7979 12.1159 24.3674 13.7982 24.6632 13.9826C24.7408 14.031 24.8281 14.0553 24.9154 14.0553C25.0027 14.0553 25.0899 14.031 25.1676 13.9826C25.4634 13.7984 28.0329 12.1159 28.0329 10.2541C28.028 9.09059 27.0825 8.14508 25.914 8.14508H25.9139ZM24.9104 13.0225C24.1299 12.4748 22.7335 11.2771 22.7335 10.2591C22.7335 9.61422 23.2571 9.08567 23.9069 9.08567C24.1736 9.08567 24.4207 9.16803 24.6245 9.32807C24.7941 9.45887 25.0318 9.45887 25.2015 9.32807C25.405 9.16803 25.6524 9.08567 25.9142 9.08567C26.559 9.08567 27.0876 9.60931 27.0876 10.2591C27.0874 11.2771 25.691 12.4746 24.9104 13.0225Z" fill="white"/>
<path d="M5.64854 20.3143L8.11633 18.6804C8.39265 18.4963 8.55761 18.1956 8.55761 17.866C8.55761 17.5363 8.39266 17.231 8.12124 17.0466L5.65345 15.4078C5.3528 15.2089 4.96508 15.1897 4.64995 15.3593C4.33482 15.529 4.13123 15.8636 4.13123 16.2223V19.4949C4.13123 19.8585 4.3301 20.1882 4.64504 20.3578C4.79058 20.4355 4.95039 20.4741 5.11043 20.4741C5.2948 20.4743 5.48385 20.421 5.64858 20.3143L5.64854 20.3143ZM5.06685 16.2225L5.1298 16.1886L7.61695 17.8613C7.61695 17.8807 7.60244 17.8903 7.59753 17.8952L5.12975 19.5291L5.38666 19.9217L5.06658 19.4952L5.06685 16.2225Z" fill="white"/>
</svg>
