<svg width="31" height="31" viewBox="0 0 31 31" fill="none" xmlns="http://www.w3.org/2000/svg">
<path d="M30.7888 24.8059L26.1591 3.02581C26.1591 3.02083 26.1542 3.02083 26.1542 3.01607V2.06635C26.1542 1.93361 26.1 1.8104 26.0115 1.71708L24.4371 0.142694C24.2502 -0.0441724 23.9254 -0.0441724 23.7433 0.142694L22.5181 1.36784L21.293 0.142694C21.1994 0.0491475 21.0765 0 20.9437 0C20.811 0 20.6878 0.0541336 20.5945 0.142694L19.3693 1.36784L18.1442 0.142694C17.9573 -0.0441724 17.6325 -0.0441724 17.4504 0.142694L16.2252 1.36784L15.0001 0.142694C14.8132 -0.0441724 14.4884 -0.0441724 14.3063 0.142694L13.0811 1.36784L11.856 0.142694C11.6691 -0.0441724 11.3443 -0.0441724 11.1622 0.142694L9.93706 1.36784L8.71191 0.142694C8.52504 -0.0441724 8.20024 -0.0441724 8.01813 0.142694L6.79297 1.36784L5.56782 0.142694C5.38096 -0.0441724 5.05616 -0.0441724 4.87404 0.142694L3.63579 1.36784L2.41087 0.142694C2.224 -0.0441724 1.8992 -0.0441724 1.71708 0.142694L0.142694 1.71708C0.0491475 1.81063 0 1.93362 0 2.06635V22.9413C0 24.2794 1.08721 25.3716 2.4256 25.3716H6.145L7.0945 29.8439C7.24218 30.5277 7.84713 31 8.5212 31C8.6195 31 8.72302 30.9903 8.8263 30.9706L29.6572 26.5427C30.0409 26.4639 30.3657 26.2376 30.5772 25.9081C30.7888 25.5785 30.8674 25.1848 30.7888 24.8061L30.7888 24.8059ZM0.983735 22.9411V2.26796L2.06619 1.18551L3.29134 2.41066C3.4782 2.59752 3.803 2.59752 3.98512 2.41066L5.21027 1.18551L6.43542 2.41066C6.62229 2.59752 6.94709 2.59752 7.1292 2.41066L8.35435 1.18551L9.5795 2.41066C9.76637 2.59752 10.0912 2.59752 10.2733 2.41066L11.4984 1.18551L12.7236 2.41066C12.9105 2.59752 13.2353 2.59752 13.4174 2.41066L14.6425 1.18551L15.8677 2.41066C16.0545 2.59752 16.3793 2.59752 16.5615 2.41066L17.7866 1.18551L19.0118 2.41066C19.1053 2.5042 19.2283 2.55335 19.361 2.55335C19.4937 2.55335 19.617 2.49922 19.7103 2.41066L20.9354 1.18551L22.1606 2.41066C22.3475 2.59752 22.6722 2.59752 22.8544 2.41066L24.0795 1.18551L25.162 2.26796V22.9365C25.162 23.7335 24.5126 24.3829 23.7156 24.3829H2.42545C1.62839 24.3829 0.983782 23.7333 0.983782 22.9412L0.983735 22.9411ZM29.7556 25.3667C29.6867 25.475 29.5784 25.5488 29.4554 25.5733L8.62457 30.0011C8.36862 30.0553 8.11291 29.8929 8.05877 29.6322L7.15346 25.3667H23.7236C25.0618 25.3667 26.154 24.2795 26.154 22.9364V7.73403L29.8242 25.0076C29.8489 25.1306 29.8292 25.2585 29.7554 25.3668L29.7556 25.3667Z" fill="white"/>
</svg>
