<svg width="32" height="31" viewBox="0 0 32 31" fill="none" xmlns="http://www.w3.org/2000/svg">
<path d="M29.5947 12.0549L27.143 11.6188C26.8909 11.5753 26.6779 11.4055 26.5906 11.1827C26.5277 11.0277 26.4646 10.8726 26.3968 10.7176C26.3 10.4948 26.329 10.2233 26.4744 10.015L27.8989 7.97033C28.3738 7.28708 28.2962 6.3665 27.7051 5.77535L25.2146 3.28977C24.6283 2.70354 23.7028 2.62102 23.0196 3.09593L20.9846 4.51549C20.7713 4.66561 20.5001 4.68992 20.2627 4.5882C20.1222 4.5253 19.9816 4.47199 19.8411 4.41377C19.6038 4.32678 19.4244 4.11352 19.3809 3.86168L18.9448 1.41487C18.7994 0.595998 18.0871 0 17.2587 0H13.7459C12.9125 0 12.2052 0.596055 12.0598 1.41487L11.648 3.73097L11.0279 4.4771C10.9311 4.51591 10.8341 4.55472 10.7372 4.59822C10.495 4.69993 10.2284 4.67585 10.0154 4.53041L7.97545 3.10594C7.2922 2.63104 6.37162 2.71357 5.78539 3.29978L3.29489 5.78536C2.70375 6.37651 2.62146 7.29709 3.10105 7.98034L4.52552 10.0203C4.67564 10.2335 4.70486 10.4999 4.60783 10.7229C4.54002 10.878 4.47221 11.033 4.41399 11.1929C4.32678 11.4158 4.11352 11.5853 3.86168 11.629L1.40996 12.0651C0.595998 12.2003 0 12.9076 0 13.741V17.2588C0 18.0921 0.596056 18.8044 1.41956 18.9449L3.86168 19.3761C4.11843 19.4196 4.32677 19.594 4.42381 19.8412C4.47712 19.9817 4.54003 20.1222 4.59824 20.2627C4.70487 20.505 4.68055 20.7762 4.53043 20.9895L3.10596 23.0196C2.62638 23.7029 2.70869 24.6235 3.2998 25.2146L5.7903 27.7051C6.37653 28.2913 7.29711 28.3739 7.98036 27.8989L10.025 26.4745C10.2382 26.3244 10.5095 26.3 10.7468 26.4067C10.8825 26.4649 11.023 26.5229 11.1586 26.5762C11.4058 26.673 11.5802 26.8814 11.6237 27.1383L12.2391 30.5978C12.2779 30.8305 12.4814 31 12.7187 31H17.2683C18.1017 31 18.809 30.4039 18.9544 29.5851L19.3905 27.1383C19.434 26.8816 19.6085 26.6732 19.8556 26.5762C19.9961 26.5229 20.1318 26.4647 20.2674 26.4067C20.5096 26.3 20.7809 26.329 20.9942 26.4745L23.0341 27.8989C23.7174 28.3738 24.6379 28.2913 25.2242 27.7051L27.7147 25.2146C28.3058 24.6235 28.3834 23.7029 27.9085 23.0196L26.484 20.9846C26.3339 20.7714 26.3096 20.5001 26.4162 20.2578C26.4791 20.1222 26.5373 19.9817 26.5907 19.8412C26.6875 19.5989 26.8958 19.4245 27.1528 19.3808L29.5996 18.9496C30.4185 18.8041 31.0145 18.0968 31.0145 17.2634V13.7457C31.0096 12.9076 30.4136 12.2003 29.5947 12.0549L29.5947 12.0549ZM30.0406 17.2588C30.0406 17.6221 29.7838 17.9275 29.4252 17.9904L26.9784 18.4216C26.3968 18.5233 25.8978 18.9304 25.6799 19.4827C25.6315 19.6087 25.5782 19.7394 25.52 19.8605C25.2777 20.4079 25.3406 21.0477 25.6799 21.5371L27.1044 23.5721C27.3127 23.8677 27.2788 24.2699 27.0221 24.5266L24.5316 27.0171C24.2748 27.2738 23.8776 27.3077 23.5771 27.0994L21.5371 25.6749C21.0477 25.331 20.4227 25.2727 19.8704 25.515C19.7493 25.5683 19.6232 25.6216 19.4972 25.67C18.94 25.888 18.5329 26.3823 18.4265 26.9685L17.9904 29.4153C17.9275 29.769 17.6172 30.0307 17.2588 30.0307H13.116L12.5733 26.9685C12.4716 26.3869 12.0598 25.8879 11.5026 25.6747C11.3766 25.6263 11.2505 25.573 11.1247 25.5197C10.5724 25.2774 9.95209 25.3403 9.45797 25.6796L7.41335 27.1041C7.11779 27.3124 6.71559 27.2736 6.45885 27.0218L3.96835 24.5313C3.71161 24.2745 3.6777 23.8724 3.88604 23.5768L5.3056 21.5467C5.64956 21.0622 5.71269 20.4177 5.47044 19.8701C5.41223 19.7441 5.35891 19.6134 5.31051 19.4874C5.09257 18.935 4.59824 18.523 4.01207 18.4213L1.56526 17.9901C1.23066 17.9272 0.969032 17.6221 0.969032 17.2587V13.741C0.969032 13.3776 1.22578 13.0722 1.58445 13.0093L4.03617 12.5732C4.61772 12.4715 5.11178 12.0743 5.3201 11.5365C5.37832 11.391 5.43632 11.2505 5.49944 11.1102C5.73678 10.5773 5.66897 9.94737 5.32991 9.45793L3.90544 7.4229C3.6971 7.12734 3.731 6.72514 3.98775 6.4684L6.47825 3.98282C6.73499 3.72607 7.13226 3.69217 7.43274 3.90051L9.47268 5.32498C9.96208 5.66403 10.5822 5.72716 11.1345 5.48982C11.2557 5.43651 11.3817 5.38811 11.5077 5.3397C11.5854 5.3107 11.6532 5.26207 11.7065 5.19917L12.4865 4.25917C12.5398 4.19627 12.5737 4.11865 12.5882 4.03634L13.0194 1.59444C13.0823 1.24066 13.3926 0.979026 13.751 0.979026H17.2639C17.6272 0.979026 17.9326 1.23577 17.9955 1.59444L18.4316 4.04125C18.5333 4.62748 18.9451 5.12178 19.5023 5.33969C19.633 5.38809 19.759 5.4414 19.89 5.49962C20.4423 5.73696 21.0626 5.67897 21.5567 5.33478L23.5918 3.91031C23.8873 3.70197 24.2895 3.74078 24.5463 3.99262L27.0368 6.47821C27.2935 6.73495 27.3274 7.13222 27.1191 7.4327L25.6946 9.47733C25.3506 9.96673 25.2875 10.6014 25.5251 11.1296C25.588 11.2701 25.6462 11.4106 25.7044 11.5512C25.9128 12.0841 26.4071 12.4813 26.9883 12.588L29.4401 13.024C29.7985 13.087 30.0555 13.3972 30.0555 13.7557L30.055 17.2587L30.0406 17.2588Z" fill="white"/>
<path d="M15.5047 6.25024C10.4124 6.25024 6.26978 10.393 6.26978 15.4852C6.26978 20.5775 10.4125 24.7246 15.5047 24.7246C20.5969 24.7246 24.7442 20.5819 24.7442 15.4897C24.7442 10.3976 20.5967 6.25024 15.5047 6.25024ZM15.5047 23.7562C10.9453 23.7562 7.2337 20.0448 7.2337 15.4852C7.2337 10.9255 10.945 7.21931 15.5047 7.21931C20.0644 7.21931 23.7757 10.9306 23.7757 15.4903C23.7757 20.05 20.0644 23.7562 15.5047 23.7562Z" fill="white"/>
<path d="M19.9332 12.9417L19.9138 11.4107C19.9089 11.0522 19.7636 10.7227 19.5165 10.4852C19.2693 10.238 18.9253 10.1073 18.5765 10.1073C18.2227 10.1122 17.8932 10.2527 17.6463 10.5046C17.4815 10.6741 17.3751 10.8778 17.3169 11.1006C15.6744 12.1423 14.5406 12.7625 13.1694 13.1551L11.3862 13.1745C10.7951 13.1841 10.2428 13.4216 9.82123 13.8432C9.40945 14.2695 9.18663 14.8267 9.19622 15.4178C9.21072 16.4644 9.95685 17.3366 10.9406 17.5496L10.9502 19.5943C10.9551 19.9431 11.0956 20.2726 11.3475 20.5148C11.5946 20.7571 11.9192 20.888 12.2631 20.888H12.2825C12.6314 20.8831 12.9609 20.7426 13.208 20.4908C13.4552 20.2387 13.5859 19.9092 13.5812 19.5606L13.5716 17.671C14.8266 18.0344 15.9216 18.6012 17.4333 19.5073C17.4962 19.7252 17.6077 19.9288 17.7773 20.0935C18.0244 20.3357 18.3539 20.4714 18.6978 20.4714H18.7172C19.071 20.4664 19.4005 20.3259 19.6474 20.0692C19.8946 19.8171 20.0253 19.4829 20.0206 19.1292L20.0012 17.5932C21.0623 17.3266 21.8279 16.3721 21.8134 15.2383C21.7937 14.1145 21.0041 13.1794 19.9331 12.9419L19.9332 12.9417ZM13.678 14.0174C14.8892 13.6442 15.9358 13.1017 17.2829 12.2683L17.3652 18.3539C16.0085 17.5641 14.9572 17.0555 13.7118 16.7115L13.678 14.0174ZM10.17 15.408C10.1651 15.0785 10.2912 14.7635 10.5238 14.5213C10.7565 14.284 11.0712 14.1481 11.4056 14.1434L12.7138 14.124L12.7428 16.6241L11.4346 16.6435C10.7321 16.6435 10.1796 16.0961 10.17 15.408L10.17 15.408ZM12.5102 19.822C12.4473 19.8898 12.3601 19.9237 12.2679 19.9237C12.1903 19.9333 12.0886 19.8898 12.0257 19.8269C11.9579 19.764 11.924 19.6767 11.9191 19.5895L11.9095 17.6078L12.5974 17.5982L12.607 19.5799C12.6072 19.6718 12.5733 19.7591 12.5102 19.822L12.5102 19.822ZM18.9498 19.4006C18.882 19.4684 18.7948 19.5072 18.7027 19.5072H18.6978C18.6056 19.5072 18.5184 19.4733 18.4506 19.4055C18.3828 19.3377 18.344 19.2505 18.344 19.1584L18.2374 11.4253C18.2374 11.3332 18.2713 11.2413 18.3391 11.1732C18.402 11.1054 18.4941 11.0666 18.5862 11.0666H18.5911C18.6833 11.0666 18.7705 11.1005 18.8383 11.1683C18.8867 11.2118 18.94 11.2894 18.94 11.4106L19.0417 19.1385C19.0515 19.2453 19.0127 19.3326 18.9498 19.4006L18.9498 19.4006ZM19.9866 16.5902L19.9527 13.9592C20.4711 14.1675 20.8345 14.6714 20.8443 15.2625C20.849 15.8538 20.5003 16.3625 19.9866 16.5902H19.9866Z" fill="white"/>
</svg>
