<svg width="27" height="31" viewBox="0 0 27 31" fill="none" xmlns="http://www.w3.org/2000/svg">
<path d="M21.7819 21.3C20.5914 21.3 19.4994 21.7328 18.6533 22.4511L15.938 19.8734C17.0694 18.5502 17.7825 16.8678 17.8958 15.0232H21.8261C22.0524 16.1252 23.0314 16.9614 24.2019 16.9614C25.5399 16.9614 26.6319 15.8743 26.6319 14.5314C26.6319 13.1884 25.5449 12.1014 24.2019 12.1014C23.0311 12.1014 22.0523 12.9328 21.8261 14.0395H17.8958C17.8023 12.4359 17.2465 10.9553 16.356 9.72535L18.3532 8.27417C19.2337 9.1547 20.4439 9.70065 21.7867 9.70065C24.4578 9.70065 26.6319 7.52635 26.6319 4.85543C26.6321 2.18451 24.4531 0.00521778 21.7819 0.00521778C19.1108 0.00521778 16.9367 2.17952 16.9367 4.85044C16.9367 5.82947 17.2318 6.74437 17.7336 7.50663L15.7315 8.96257C14.2261 7.32952 12.0765 6.2964 9.68117 6.2964C8.39731 6.2964 7.18232 6.60145 6.10004 7.12777L4.49146 4.25503C5.00304 3.80731 5.33256 3.16301 5.33256 2.42997C5.33256 1.09202 4.24553 0 2.90259 0C1.55965 0.000226451 0.477368 1.09249 0.477368 2.43519C0.477368 3.77813 1.5644 4.86517 2.90734 4.86517C3.16325 4.86517 3.40421 4.81602 3.63545 4.7422L5.24403 7.61493C2.96648 9.08083 1.45141 11.6338 1.45141 14.5406C1.45141 17.5855 3.11414 20.2369 5.57357 21.6635L4.45685 23.8967C4.12236 23.7884 3.76816 23.7246 3.39428 23.7246C1.52005 23.7246 0 25.2496 0 27.1189C0 28.9881 1.52504 30.5131 3.39428 30.5131C5.26351 30.5131 6.78855 28.9881 6.78855 27.1189C6.78855 25.9678 6.2131 24.9495 5.33262 24.3347L6.44934 22.1063C7.44309 22.5343 8.53511 22.7702 9.68621 22.7702C11.8358 22.7702 13.7887 21.9339 15.2546 20.5862L17.9749 23.1688C17.3256 23.9952 16.937 25.0283 16.937 26.1548C16.937 28.8259 19.1113 31 21.7822 31C24.4534 31 26.6275 28.8257 26.6275 26.1548C26.6275 23.4741 24.4534 21.2998 21.7822 21.2998L21.7819 21.3ZM21.7819 0.988942C23.9118 0.988942 25.6434 2.72049 25.6434 4.85038C25.6434 6.98028 23.9118 8.71182 21.7819 8.71182C19.652 8.71182 17.9205 6.98028 17.9205 4.85038C17.9205 2.72049 19.652 0.988942 21.7819 0.988942ZM1.46103 2.43513C1.46103 1.63821 2.1103 0.988942 2.90723 0.988942C3.70415 0.988942 4.35342 1.63821 4.35342 2.43513C4.35342 3.23206 3.70415 3.88133 2.90723 3.88133C2.1103 3.88133 1.46103 3.22731 1.46103 2.43513ZM5.79967 27.1146C5.79967 28.4428 4.71739 29.5249 3.38941 29.5249C2.06119 29.5249 0.979143 28.4426 0.979143 27.1146C0.979143 25.7864 2.06143 24.7043 3.38941 24.7043C4.71739 24.7041 5.79967 25.7864 5.79967 27.1146ZM24.2022 13.0904C24.9991 13.0904 25.6484 13.7397 25.6484 14.5366C25.6484 15.3335 24.9991 15.9828 24.2022 15.9828C23.4052 15.9828 22.756 15.3335 22.756 14.5366C22.756 13.7397 23.4052 13.0904 24.2022 13.0904ZM2.43015 14.5316C2.43015 10.5325 5.68175 7.28065 9.68111 7.28065C13.6802 7.28065 16.9321 10.5322 16.9321 14.5316C16.9321 18.5307 13.6805 21.7826 9.68111 21.7826C5.68175 21.7826 2.43015 18.531 2.43015 14.5316ZM21.7817 30.0122C19.6518 30.0122 17.9203 28.2806 17.9203 26.1507C17.9203 24.0208 19.6518 22.2843 21.7817 22.2843C23.9116 22.2843 25.6431 24.0158 25.6431 26.1507C25.6431 28.2854 23.9116 30.0122 21.7817 30.0122Z" fill="white"/>
</svg>
