<svg width="31" height="29" viewBox="0 0 31 29" fill="none" xmlns="http://www.w3.org/2000/svg">
<path d="M13.0819 9.30303C13.0819 5.68353 16.023 2.74222 19.6427 2.74222C23.2669 2.74222 26.2126 5.68336 26.2126 9.30303C26.2126 10.7954 25.7232 12.2004 24.8027 13.3731C24.0516 14.3227 23.5283 15.0109 23.2182 15.7909C23.5332 15.8538 23.8238 16.0089 24.0565 16.2415C24.3715 16.5565 24.541 16.9731 24.541 17.4142C24.541 17.8552 24.3666 18.2719 24.0565 18.5868C23.7416 18.9018 23.3249 19.0713 22.8839 19.0713H22.3023C22.1328 20.3892 21.0085 21.4164 19.6422 21.4164C18.2759 21.4164 17.1517 20.3941 16.9822 19.0762H16.4006C15.4849 19.0762 14.7434 18.335 14.7434 17.419C14.7434 16.6196 15.3102 15.9508 16.0613 15.7958C15.7608 15.0302 15.2569 14.3568 14.4768 13.373C13.5712 12.2006 13.0818 10.7906 13.0818 9.30297L13.0819 9.30303ZM19.6473 20.4471C20.4757 20.4471 21.1686 19.856 21.3285 19.0759H17.9657C18.1259 19.856 18.8188 20.4471 19.6472 20.4471H19.6473ZM18.8188 15.7569H20.476V11.9291C20.476 11.6868 20.2772 11.4881 20.035 11.4881H19.2598C19.0176 11.4881 18.8188 11.6868 18.8188 11.9291L18.8188 15.7569ZM15.7177 17.4188C15.7177 17.7966 16.0278 18.1067 16.4056 18.1067H22.8836C23.0677 18.1067 23.2421 18.034 23.3681 17.9033C23.4989 17.7726 23.5716 17.5981 23.5716 17.4139C23.5716 17.2298 23.4989 17.0554 23.3681 16.9294C23.2374 16.7986 23.063 16.7259 22.8836 16.7259H16.7203H16.7107H16.4055C16.0277 16.7259 15.7174 17.036 15.7174 17.4188L15.7177 17.4188ZM17.0891 15.7569H17.8498V11.9291C17.8498 11.149 18.4844 10.5191 19.2597 10.5191H20.0349C20.815 10.5191 21.4449 11.1537 21.4449 11.9291V15.7569H22.1959C22.5593 14.6375 23.2521 13.7656 24.042 12.7722C24.827 11.774 25.2437 10.5772 25.2437 9.30309C25.2437 6.22141 22.7291 3.71169 19.6425 3.71169C16.5608 3.71169 14.0511 6.22164 14.0511 9.30309C14.0511 10.5725 14.4628 11.7742 15.2478 12.7722C16.0714 13.8139 16.7402 14.6618 17.089 15.7569H17.0891Z" fill="white"/>
<path d="M19.6427 4.68092C22.1961 4.68092 24.2747 6.75475 24.2747 9.3033C24.2747 9.56987 24.0567 9.78781 23.7902 9.78781C23.5236 9.78781 23.3057 9.56987 23.3057 9.3033C23.3057 7.28766 21.6632 5.64988 19.6426 5.64988C19.3761 5.64988 19.1581 5.43195 19.1581 5.16538C19.1628 4.89904 19.3761 4.68088 19.6426 4.68088L19.6427 4.68092Z" fill="white"/>
<path d="M0.508787 12.4136L2.03989 10.8825C2.69392 10.2284 3.83271 10.2284 4.48674 10.8825L14.1969 20.5926C14.2357 20.6314 14.2696 20.6847 14.289 20.7332C14.2939 20.7477 14.2986 20.7575 14.3035 20.772C14.3084 20.7816 14.3131 20.7963 14.318 20.8059L15.2824 24.372C15.3792 24.7403 15.2824 25.1182 15.0111 25.3847C14.8124 25.5835 14.546 25.6948 14.2746 25.6948C14.1824 25.6948 14.0905 25.6803 13.9984 25.656L10.4323 24.6917C10.4178 24.6867 10.4079 24.6821 10.3983 24.6772C10.3838 24.6722 10.374 24.6676 10.3595 24.6627C10.3062 24.6383 10.2578 24.6093 10.219 24.5705L0.50884 14.8604C-0.169513 14.1869 -0.169513 13.0872 0.50884 12.4135L0.508787 12.4136ZM10.5576 23.5434L13.1692 20.9366L5.17965 12.947L2.568 15.5587L10.5576 23.5434ZM14.2498 24.7207C14.2594 24.7256 14.2933 24.7303 14.3274 24.7013C14.3613 24.6674 14.3517 24.6384 14.3468 24.6237L13.6007 21.8668L11.4882 23.9745L14.2498 24.7207ZM1.19154 14.1774L1.88439 14.8702L4.49604 12.2586L3.80319 11.5657C3.51721 11.2797 3.01331 11.2797 2.72264 11.5657L1.19154 13.0968C0.895971 13.3973 0.895971 13.8769 1.19154 14.1774Z" fill="white"/>
<path d="M23.335 25.0503C23.5677 25.0164 23.8146 24.8226 24.0328 24.6481C24.2412 24.4833 24.5463 24.5174 24.7112 24.7305C24.876 24.9388 24.8419 25.244 24.6288 25.4088C24.3478 25.6317 23.9601 25.9321 23.4756 26.0049C23.398 26.0145 23.3206 26.0194 23.2479 26.0194C22.7729 26.0194 22.3467 25.811 22.0123 25.6172C21.8717 25.5349 21.7216 25.4427 21.5811 25.341C21.2322 25.4767 20.8833 25.5106 20.5684 25.4378C20.2777 25.3749 20.0402 25.2295 19.8318 25.1035C19.735 25.0452 19.6429 24.9872 19.5412 24.9386C19.1778 24.7691 18.6835 24.7787 18.1894 24.9676C17.6904 25.1565 17.23 25.486 16.7794 25.8106C16.5615 25.9656 16.261 25.9172 16.1011 25.6991C15.946 25.4811 15.9944 25.1807 16.2126 25.0207C16.6875 24.6767 17.23 24.2891 17.8455 24.0613C18.5916 23.7802 19.3378 23.7802 19.9483 24.0613C20.0839 24.1242 20.2099 24.2018 20.3407 24.2792C20.5055 24.3809 20.6458 24.4633 20.7817 24.4972C20.8107 24.5021 20.8399 24.5068 20.8738 24.5068C20.5298 23.7363 20.8109 22.7429 21.5231 22.2779C21.7703 22.1179 22.0221 22.0452 22.2693 22.0646C22.7732 22.1034 23.1995 22.5395 23.2626 23.082C23.3061 23.4503 23.1997 23.838 22.9427 24.2254C22.812 24.4242 22.6568 24.6082 22.4823 24.7682C22.4872 24.7731 22.4919 24.7731 22.4968 24.7777C22.744 24.9292 23.0688 25.0891 23.3351 25.0503L23.335 25.0503ZM22.1916 23.0347C22.1916 23.0347 22.1867 23.0347 22.1916 23.0347C22.1673 23.0347 22.1189 23.0492 22.0462 23.0929C21.7312 23.3013 21.6005 23.7809 21.7555 24.1201C21.8961 23.999 22.0221 23.8536 22.1287 23.6985C22.2159 23.5629 22.3177 23.3691 22.2983 23.1946C22.2838 23.1025 22.211 23.0347 22.1916 23.0347L22.1916 23.0347Z" fill="white"/>
<path d="M8.78439 24.7112C9.05096 24.7112 9.2689 24.9291 9.2689 25.1957V25.9467C9.2689 27.0805 10.1944 28.006 11.3282 28.006L27.967 28.0058C29.1055 28.0058 30.031 27.0803 30.031 25.9465V3.03303C30.031 1.89446 29.1055 0.968961 27.967 0.968961H11.3328C10.199 0.968961 9.27346 1.89446 9.27346 3.03303V13.1258C9.27346 13.3924 9.05553 13.6103 8.78896 13.6103C8.5224 13.6103 8.30446 13.3924 8.30446 13.1258V3.03303C8.30446 1.36139 9.66116 0 11.3328 0H27.967C29.6386 0 31 1.36162 31 3.03303V25.951C31 27.6227 29.6384 28.9794 27.967 28.9794H11.3328C9.66116 28.9794 8.30446 27.6227 8.30446 25.951V25.1953C8.29955 24.9287 8.51771 24.7108 8.78405 24.7108L8.78439 24.7112Z" fill="white"/>
</svg>
