<svg width="26" height="21" viewBox="0 0 26 21" fill="none" xmlns="http://www.w3.org/2000/svg">
<path d="M25.1842 16.6274C25.1842 14.2504 23.2545 12.2975 20.8814 12.2703C20.8619 12.2703 20.8426 12.2664 20.8231 12.2664C18.4188 12.2664 16.4622 14.2232 16.4622 16.6273C16.4622 18.6891 17.9249 20.4863 19.9439 20.9027C20.2357 20.9611 20.5313 20.9923 20.8271 20.9923H20.831C20.8426 20.9923 20.8505 21 20.8622 21H21.0294H21.0371H21.0799C21.1344 21 21.1849 20.9884 21.2277 20.9688C23.4376 20.7589 25.1842 18.8877 25.1842 16.6274L25.1842 16.6274ZM20.8193 20.2336C20.5781 20.2336 20.3291 20.2103 20.0879 20.1596C18.419 19.8174 17.209 18.3312 17.209 16.6233C17.209 14.6353 18.8274 13.0169 20.8035 13.0132C20.8191 13.0171 20.8347 13.0171 20.8503 13.0171C22.8227 13.0327 24.4255 14.6511 24.4255 16.6235C24.4295 18.5959 22.8267 20.2142 20.8193 20.2336L20.8193 20.2336Z" fill="url(#paint0_linear_27_2266)"/>
<path d="M19.7418 17.4014L18.9755 16.6351L19.7418 15.8687C19.8896 15.7209 19.8896 15.4836 19.7418 15.3357C19.5941 15.1879 19.3568 15.1879 19.2088 15.3357L18.178 16.3705C18.0302 16.5183 18.0302 16.7556 18.178 16.9035L19.2088 17.9344C19.2828 18.0084 19.3801 18.0433 19.4773 18.0433C19.5746 18.0433 19.6718 18.0084 19.7458 17.9344C19.8858 17.7866 19.8858 17.5493 19.7418 17.4014L19.7418 17.4014Z" fill="url(#paint1_linear_27_2266)"/>
<path d="M23.4647 16.3666L22.4339 15.3318C22.2861 15.184 22.0488 15.184 21.9009 15.3318C21.7531 15.4795 21.7531 15.7168 21.9009 15.8648L22.6672 16.6311L21.9009 17.3975C21.7531 17.5453 21.7531 17.7826 21.9009 17.9305C21.9748 18.0045 22.0721 18.0394 22.1693 18.0394C22.2666 18.0394 22.3638 18.0045 22.4378 17.9305L23.4687 16.8996C23.6125 16.7517 23.6125 16.5144 23.4648 16.3666L23.4647 16.3666Z" fill="url(#paint2_linear_27_2266)"/>
<path d="M21.7454 13.8379C21.5469 13.7719 21.3331 13.8807 21.2707 14.0792L19.6563 18.9535C19.5902 19.1519 19.6991 19.3658 19.8975 19.4281C19.9364 19.4398 19.9753 19.4476 20.0143 19.4476C20.1739 19.4476 20.3217 19.3464 20.3722 19.187L21.9866 14.3086C22.0487 14.1139 21.9438 13.8999 21.7453 13.8378L21.7454 13.8379Z" fill="url(#paint3_linear_27_2266)"/>
<path d="M2.06023 2.52133H2.72936C2.93944 2.52133 3.10672 2.35406 3.10672 2.14397C3.10672 1.93388 2.93945 1.7666 2.72936 1.7666H2.06023C1.85014 1.7666 1.68286 1.93388 1.68286 2.14397C1.68286 2.35405 1.85014 2.52133 2.06023 2.52133Z" fill="url(#paint4_linear_27_2266)"/>
<path d="M3.89665 2.52133H4.56578C4.77587 2.52133 4.94315 2.35406 4.94315 2.14397C4.94315 1.93388 4.77587 1.7666 4.56578 1.7666H3.89665C3.68657 1.7666 3.51929 1.93388 3.51929 2.14397C3.51929 2.35405 3.68657 2.52133 3.89665 2.52133Z" fill="url(#paint5_linear_27_2266)"/>
<path d="M5.73283 2.52133H6.40197C6.61205 2.52133 6.77933 2.35406 6.77933 2.14397C6.77933 1.93388 6.61205 1.7666 6.40197 1.7666H5.73283C5.52275 1.7666 5.35547 1.93388 5.35547 2.14397C5.35547 2.35405 5.52275 2.52133 5.73283 2.52133Z" fill="url(#paint6_linear_27_2266)"/>
<path d="M12.1711 2.52133H19.695C19.9051 2.52133 20.0724 2.35406 20.0724 2.14397C20.0724 1.93388 19.9051 1.7666 19.695 1.7666H12.1711C11.961 1.7666 11.7937 1.93388 11.7937 2.14397C11.7937 2.35405 11.9649 2.52133 12.1711 2.52133Z" fill="url(#paint7_linear_27_2266)"/>
<path d="M6.60042 8.06091H2.83464C2.62456 8.06091 2.45728 8.22819 2.45728 8.43828C2.45728 8.64837 2.62455 8.81565 2.83464 8.81565H6.60042C6.8105 8.81565 6.97778 8.64837 6.97778 8.43828C6.97778 8.23213 6.80656 8.06091 6.60042 8.06091Z" fill="url(#paint8_linear_27_2266)"/>
<path d="M2.83464 10.7881H6.12184C6.33192 10.7881 6.4992 10.6208 6.4992 10.4107C6.4992 10.2006 6.33192 10.0333 6.12184 10.0333H2.83464C2.62456 10.0333 2.45728 10.2006 2.45728 10.4107C2.45728 10.6208 2.62455 10.7881 2.83464 10.7881Z" fill="url(#paint9_linear_27_2266)"/>
<path d="M2.83464 12.7641H4.72145C4.93153 12.7641 5.09881 12.5969 5.09881 12.3868C5.09881 12.1767 4.93154 12.0094 4.72145 12.0094H2.83464C2.62456 12.0094 2.45728 12.1767 2.45728 12.3868C2.45728 12.5929 2.62455 12.7641 2.83464 12.7641Z" fill="url(#paint10_linear_27_2266)"/>
<path d="M6.60045 13.9819H4.79924C4.58916 13.9819 4.42188 14.1492 4.42188 14.3593C4.42188 14.5694 4.58915 14.7367 4.79924 14.7367H6.60045C6.81053 14.7367 6.97781 14.5694 6.97781 14.3593C6.97781 14.1492 6.80659 13.9819 6.60045 13.9819Z" fill="url(#paint11_linear_27_2266)"/>
<path d="M6.60042 15.9543H2.83464C2.62456 15.9543 2.45728 16.1216 2.45728 16.3317C2.45728 16.5418 2.62455 16.7091 2.83464 16.7091H6.60042C6.8105 16.7091 6.97778 16.5418 6.97778 16.3317C6.97778 16.1256 6.80656 15.9543 6.60042 15.9543Z" fill="url(#paint12_linear_27_2266)"/>
<path d="M19.3526 8.43828C19.3526 8.2282 19.1853 8.06091 18.9752 8.06091H15.8981C15.688 8.06091 15.5208 8.22819 15.5208 8.43828C15.5208 8.64837 15.688 8.81565 15.8981 8.81565H18.9752C19.1853 8.81565 19.3526 8.64837 19.3526 8.43828Z" fill="url(#paint13_linear_27_2266)"/>
<path d="M8.8217 8.81552H13.9335C14.1436 8.81552 14.3109 8.64825 14.3109 8.43816C14.3109 8.22807 14.1436 8.06079 13.9335 8.06079H8.8217C8.61162 8.06079 8.44434 8.22807 8.44434 8.43816C8.44434 8.64825 8.61161 8.81552 8.8217 8.81552Z" fill="url(#paint14_linear_27_2266)"/>
<path d="M8.8217 10.7881H15.474C15.6841 10.7881 15.8514 10.6208 15.8514 10.4107C15.8514 10.2006 15.6841 10.0333 15.474 10.0333H8.8217C8.61162 10.0333 8.44434 10.2006 8.44434 10.4107C8.44434 10.6208 8.61161 10.7881 8.8217 10.7881Z" fill="url(#paint15_linear_27_2266)"/>
<path d="M2.83464 6.76926H4.83034C5.04043 6.76926 5.20771 6.60198 5.20771 6.39189C5.20771 6.18181 5.04043 6.01453 4.83034 6.01453H2.83464C2.62456 6.01453 2.45728 6.1818 2.45728 6.39189C2.45728 6.60198 2.62455 6.76926 2.83464 6.76926Z" fill="url(#paint16_linear_27_2266)"/>
<path d="M8.8217 6.76926H15.474C15.6841 6.76926 15.8514 6.60198 15.8514 6.39189C15.8514 6.18181 15.6841 6.01453 15.474 6.01453H8.8217C8.61162 6.01453 8.44434 6.1818 8.44434 6.39189C8.44434 6.60198 8.61161 6.76926 8.8217 6.76926Z" fill="url(#paint17_linear_27_2266)"/>
<path d="M16.4118 12.3868C16.4118 12.1767 16.2445 12.0094 16.0344 12.0094H13.9142C13.7041 12.0094 13.5369 12.1767 13.5369 12.3868C13.5369 12.5968 13.7041 12.7641 13.9142 12.7641H16.0344C16.2445 12.7641 16.4118 12.5929 16.4118 12.3868Z" fill="url(#paint18_linear_27_2266)"/>
<path d="M8.8217 12.7641H11.9028C12.1128 12.7641 12.2801 12.5969 12.2801 12.3868C12.2801 12.1767 12.1128 12.0094 11.9028 12.0094H8.8217C8.61162 12.0094 8.44434 12.1767 8.44434 12.3868C8.44434 12.5929 8.61161 12.7641 8.8217 12.7641Z" fill="url(#paint19_linear_27_2266)"/>
<path d="M8.8217 14.7365H15.6492C15.8593 14.7365 16.0265 14.5693 16.0265 14.3592C16.0265 14.1491 15.8593 13.9818 15.6492 13.9818H8.8217C8.61162 13.9818 8.44434 14.1491 8.44434 14.3592C8.44434 14.5655 8.61161 14.7365 8.8217 14.7365Z" fill="url(#paint20_linear_27_2266)"/>
<path d="M6.60045 17.9497H4.79924C4.58916 17.9497 4.42188 18.117 4.42188 18.3271C4.42188 18.5372 4.58915 18.7044 4.79924 18.7044H6.60045C6.81053 18.7044 6.97781 18.5372 6.97781 18.3271C6.97781 18.117 6.80659 17.9497 6.60045 17.9497Z" fill="url(#paint21_linear_27_2266)"/>
<path d="M8.8217 18.7049H15.7854C15.9954 18.7049 16.1627 18.5376 16.1627 18.3276C16.1627 18.1175 15.9954 17.9502 15.7854 17.9502H8.8217C8.61162 17.9502 8.44434 18.1175 8.44434 18.3276C8.44434 18.5337 8.61161 18.7049 8.8217 18.7049Z" fill="url(#paint22_linear_27_2266)"/>
<path d="M14.0656 15.9543C13.8555 15.9543 13.6882 16.1216 13.6882 16.3317C13.6882 16.5418 13.8555 16.7091 14.0656 16.7091H14.8903C15.1004 16.7091 15.2677 16.5418 15.2677 16.3317C15.2677 16.1216 15.1004 15.9543 14.8903 15.9543H14.0656Z" fill="url(#paint23_linear_27_2266)"/>
<path d="M8.8217 16.7091H11.9028C12.1128 16.7091 12.2801 16.5418 12.2801 16.3317C12.2801 16.1216 12.1128 15.9543 11.9028 15.9543H8.8217C8.61162 15.9543 8.44434 16.1216 8.44434 16.3317C8.44434 16.5418 8.61161 16.7091 8.8217 16.7091Z" fill="url(#paint24_linear_27_2266)"/>
<path d="M17.0573 20.2413H2.00576C1.51164 20.2413 1.11096 19.8407 1.11096 19.3465L1.11114 4.28718H20.6949V10.8345C20.6091 10.9045 20.5508 11.0095 20.5508 11.1302C20.5468 11.3403 20.7141 11.5115 20.9204 11.5153C20.9399 11.5153 20.9593 11.5192 20.9788 11.5192L21.0565 11.5269C21.1615 11.5309 21.2589 11.4958 21.3366 11.422C21.4106 11.3519 21.4534 11.2507 21.4534 11.1497V3.91373V3.90979V3.90585V1.64954C21.4534 0.739189 20.7143 0 19.8039 0H2.00594C1.09949 0.00394019 0.360352 0.743086 0.360352 1.65343V3.90974V3.91368V3.91762V19.3502C0.360352 20.2605 1.09949 20.9997 2.00989 20.9997H17.0578C17.2678 20.9997 17.4351 20.8324 17.4351 20.6223C17.4351 20.4083 17.2639 20.241 17.0578 20.241L17.0573 20.2413ZM2.00576 0.758857H19.8C20.2942 0.758857 20.6948 1.15951 20.6948 1.65366V3.53652H1.11518V1.65366C1.11518 1.15954 1.51601 0.758857 2.00604 0.758857H2.00576Z" fill="url(#paint25_linear_27_2266)"/>
<defs>
<linearGradient id="paint0_linear_27_2266" x1="16.5112" y1="12.4743" x2="25.3549" y2="19.0967" gradientUnits="userSpaceOnUse">
<stop stop-color="#1C4EFA"/>
<stop offset="1" stop-color="#33D8FC"/>
</linearGradient>
<linearGradient id="paint1_linear_27_2266" x1="18.0772" y1="15.292" x2="20.3826" y2="16.3871" gradientUnits="userSpaceOnUse">
<stop stop-color="#1C4EFA"/>
<stop offset="1" stop-color="#33D8FC"/>
</linearGradient>
<linearGradient id="paint2_linear_27_2266" x1="21.8001" y1="15.2881" x2="24.1059" y2="16.3837" gradientUnits="userSpaceOnUse">
<stop stop-color="#1C4EFA"/>
<stop offset="1" stop-color="#33D8FC"/>
</linearGradient>
<linearGradient id="paint3_linear_27_2266" x1="19.6503" y1="13.9526" x2="23.0579" y2="15.0273" gradientUnits="userSpaceOnUse">
<stop stop-color="#1C4EFA"/>
<stop offset="1" stop-color="#33D8FC"/>
</linearGradient>
<linearGradient id="paint4_linear_27_2266" x1="1.69087" y1="1.78457" x2="2.44168" y2="2.84668" gradientUnits="userSpaceOnUse">
<stop stop-color="#1C4EFA"/>
<stop offset="1" stop-color="#33D8FC"/>
</linearGradient>
<linearGradient id="paint5_linear_27_2266" x1="3.5273" y1="1.78457" x2="4.27811" y2="2.84668" gradientUnits="userSpaceOnUse">
<stop stop-color="#1C4EFA"/>
<stop offset="1" stop-color="#33D8FC"/>
</linearGradient>
<linearGradient id="paint6_linear_27_2266" x1="5.36348" y1="1.78457" x2="6.11429" y2="2.84668" gradientUnits="userSpaceOnUse">
<stop stop-color="#1C4EFA"/>
<stop offset="1" stop-color="#33D8FC"/>
</linearGradient>
<linearGradient id="paint7_linear_27_2266" x1="11.8403" y1="1.78457" x2="12.0311" y2="3.35423" gradientUnits="userSpaceOnUse">
<stop stop-color="#1C4EFA"/>
<stop offset="1" stop-color="#33D8FC"/>
</linearGradient>
<linearGradient id="paint8_linear_27_2266" x1="2.48271" y1="8.07888" x2="2.82062" y2="9.59651" gradientUnits="userSpaceOnUse">
<stop stop-color="#1C4EFA"/>
<stop offset="1" stop-color="#33D8FC"/>
</linearGradient>
<linearGradient id="paint9_linear_27_2266" x1="2.48001" y1="10.0513" x2="2.85351" y2="11.5511" gradientUnits="userSpaceOnUse">
<stop stop-color="#1C4EFA"/>
<stop offset="1" stop-color="#33D8FC"/>
</linearGradient>
<linearGradient id="paint10_linear_27_2266" x1="2.47214" y1="12.0274" x2="3.00213" y2="13.4183" gradientUnits="userSpaceOnUse">
<stop stop-color="#1C4EFA"/>
<stop offset="1" stop-color="#33D8FC"/>
</linearGradient>
<linearGradient id="paint11_linear_27_2266" x1="4.43625" y1="13.9999" x2="4.97931" y2="15.3789" gradientUnits="userSpaceOnUse">
<stop stop-color="#1C4EFA"/>
<stop offset="1" stop-color="#33D8FC"/>
</linearGradient>
<linearGradient id="paint12_linear_27_2266" x1="2.48271" y1="15.9723" x2="2.82062" y2="17.4899" gradientUnits="userSpaceOnUse">
<stop stop-color="#1C4EFA"/>
<stop offset="1" stop-color="#33D8FC"/>
</linearGradient>
<linearGradient id="paint13_linear_27_2266" x1="15.5423" y1="8.07888" x2="15.9337" y2="9.56893" gradientUnits="userSpaceOnUse">
<stop stop-color="#1C4EFA"/>
<stop offset="1" stop-color="#33D8FC"/>
</linearGradient>
<linearGradient id="paint14_linear_27_2266" x1="8.47734" y1="8.07876" x2="8.74282" y2="9.62607" gradientUnits="userSpaceOnUse">
<stop stop-color="#1C4EFA"/>
<stop offset="1" stop-color="#33D8FC"/>
</linearGradient>
<linearGradient id="paint15_linear_27_2266" x1="8.486" y1="10.0513" x2="8.69853" y2="11.6153" gradientUnits="userSpaceOnUse">
<stop stop-color="#1C4EFA"/>
<stop offset="1" stop-color="#33D8FC"/>
</linearGradient>
<linearGradient id="paint16_linear_27_2266" x1="2.47275" y1="6.0325" x2="2.98682" y2="7.43723" gradientUnits="userSpaceOnUse">
<stop stop-color="#1C4EFA"/>
<stop offset="1" stop-color="#33D8FC"/>
</linearGradient>
<linearGradient id="paint17_linear_27_2266" x1="8.486" y1="6.0325" x2="8.69853" y2="7.59648" gradientUnits="userSpaceOnUse">
<stop stop-color="#1C4EFA"/>
<stop offset="1" stop-color="#33D8FC"/>
</linearGradient>
<linearGradient id="paint18_linear_27_2266" x1="13.553" y1="12.0274" x2="14.0498" y2="13.4463" gradientUnits="userSpaceOnUse">
<stop stop-color="#1C4EFA"/>
<stop offset="1" stop-color="#33D8FC"/>
</linearGradient>
<linearGradient id="paint19_linear_27_2266" x1="8.46591" y1="12.0274" x2="8.85697" y2="13.5176" gradientUnits="userSpaceOnUse">
<stop stop-color="#1C4EFA"/>
<stop offset="1" stop-color="#33D8FC"/>
</linearGradient>
<linearGradient id="paint20_linear_27_2266" x1="8.48699" y1="13.9998" x2="8.69478" y2="15.5651" gradientUnits="userSpaceOnUse">
<stop stop-color="#1C4EFA"/>
<stop offset="1" stop-color="#33D8FC"/>
</linearGradient>
<linearGradient id="paint21_linear_27_2266" x1="4.43625" y1="17.9677" x2="4.97931" y2="19.3467" gradientUnits="userSpaceOnUse">
<stop stop-color="#1C4EFA"/>
<stop offset="1" stop-color="#33D8FC"/>
</linearGradient>
<linearGradient id="paint22_linear_27_2266" x1="8.48776" y1="17.9682" x2="8.692" y2="19.5344" gradientUnits="userSpaceOnUse">
<stop stop-color="#1C4EFA"/>
<stop offset="1" stop-color="#33D8FC"/>
</linearGradient>
<linearGradient id="paint23_linear_27_2266" x1="13.6971" y1="15.9723" x2="14.419" y2="17.1051" gradientUnits="userSpaceOnUse">
<stop stop-color="#1C4EFA"/>
<stop offset="1" stop-color="#33D8FC"/>
</linearGradient>
<linearGradient id="paint24_linear_27_2266" x1="8.46591" y1="15.9723" x2="8.85697" y2="17.4626" gradientUnits="userSpaceOnUse">
<stop stop-color="#1C4EFA"/>
<stop offset="1" stop-color="#33D8FC"/>
</linearGradient>
<linearGradient id="paint25_linear_27_2266" x1="0.479012" y1="0.499993" x2="21.7775" y2="16.5412" gradientUnits="userSpaceOnUse">
<stop stop-color="#1C4EFA"/>
<stop offset="1" stop-color="#33D8FC"/>
</linearGradient>
</defs>
</svg>
