<svg width="13" height="21" viewBox="0 0 13 21" fill="none" xmlns="http://www.w3.org/2000/svg">
<path d="M3.94 1.97989H8.53009C8.71347 1.97989 8.8634 1.82996 8.8634 1.64658C8.8634 1.46319 8.71347 1.31326 8.53009 1.31326L3.94 1.31311C3.75662 1.31311 3.60669 1.46304 3.60669 1.64642C3.60669 1.82981 3.75662 1.97989 3.94 1.97989V1.97989Z" fill="url(#paint0_linear_29_2310)"/>
<path d="M6.56344 17.7097C6.01682 17.7097 5.57349 18.1531 5.57349 18.6997C5.57349 19.2463 6.01682 19.6896 6.56344 19.6896C7.11005 19.6896 7.55338 19.2463 7.55338 18.6997C7.55338 18.1531 7.11005 17.7097 6.56344 17.7097ZM6.56344 19.0196C6.3868 19.0196 6.2401 18.8763 6.2401 18.6963C6.2401 18.5163 6.38343 18.373 6.56344 18.373C6.74344 18.373 6.88677 18.5163 6.88677 18.6963C6.88677 18.8763 6.74344 19.0196 6.56344 19.0196Z" fill="url(#paint1_linear_29_2310)"/>
<path d="M12.4731 13.4465V4.27336V4.26999V4.26661V1.66672C12.4731 0.746734 11.7264 0 10.8064 0H1.66672C0.746733 0 0 0.746734 0 1.66672V19.3333C0 20.2533 0.746733 21 1.66672 21H10.8068C11.7268 21 12.4735 20.2533 12.4735 19.3333L12.4734 13.4566V13.4532V13.4466L12.4731 13.4465ZM7.28985 16.3964C7.29644 16.3298 7.30657 16.263 7.30657 16.1964C7.30657 15.1298 6.43986 14.2632 5.37331 14.2632C4.30663 14.2632 3.44004 15.1299 3.44004 16.1964C3.44004 16.263 3.45002 16.3298 3.45677 16.3964H1.97344V15.903L2.66674 15.673C2.77002 15.6397 2.85013 15.5563 2.88005 15.4529C2.93668 15.2729 3.00343 15.1063 3.08 14.9629C3.13003 14.8662 3.13341 14.753 3.08338 14.6563L2.75667 14.003L3.16995 13.5897L3.82322 13.9165C3.9199 13.9631 4.03315 13.9631 4.12983 13.9131C4.28313 13.8331 4.44979 13.7632 4.62322 13.7097C4.72649 13.6798 4.8066 13.5997 4.84328 13.4964L5.07653 12.7998H5.65984L5.88987 13.4964C5.92317 13.5997 6.0065 13.6798 6.10993 13.7097C6.28994 13.7632 6.45322 13.8331 6.59994 13.9097C6.69662 13.9597 6.80987 13.9631 6.90655 13.9131L7.5698 13.5897L7.98308 14.003L7.65637 14.6563C7.60634 14.753 7.60972 14.8696 7.65975 14.9629C7.74307 15.1196 7.80967 15.2829 7.8597 15.4495C7.88962 15.5562 7.96973 15.6395 8.07638 15.6728L8.77306 15.9028V16.3962L7.28985 16.3964ZM4.12648 16.3964C4.11651 16.3298 4.10975 16.263 4.10975 16.1964C4.10975 15.4998 4.67648 14.9298 5.37639 14.9298C6.07307 14.9298 6.64302 15.4965 6.64302 16.1964C6.64302 16.263 6.63642 16.3298 6.6263 16.3964H4.12648ZM9.2096 15.3496L8.44629 15.0963C8.41298 14.9996 8.37293 14.9029 8.32628 14.8062L8.6863 14.0862C8.74967 13.9562 8.72635 13.8029 8.62292 13.7029L7.86958 12.9496C7.76953 12.8495 7.61284 12.823 7.48624 12.8862L6.76622 13.2462C6.67292 13.2029 6.57962 13.1629 6.47956 13.1296L6.22621 12.3629C6.17955 12.2261 6.0528 12.1328 5.90947 12.1328H4.8428C4.69947 12.1328 4.57286 12.2228 4.52606 12.3595L4.26932 13.1262C4.16927 13.1629 4.07596 13.1995 3.98266 13.2428L3.26264 12.8828C3.13604 12.8194 2.97936 12.8427 2.87931 12.9462L2.12597 13.6995C2.02592 13.7996 1.99937 13.9562 2.06259 14.0828L2.42261 14.8029C2.37933 14.8928 2.33928 14.9895 2.30598 15.0895L1.54266 15.3429C1.40593 15.3895 1.31601 15.5163 1.31601 15.6596V16.393H0.669334L0.669794 3.2898H11.8095V3.9331H10.8329C10.6896 3.9331 10.563 4.02303 10.5162 4.15976L10.1895 5.13972C10.0461 5.18975 9.90619 5.24638 9.77285 5.30976L8.85287 4.84969C8.72289 4.78631 8.56959 4.80964 8.46953 4.91306L7.54295 5.83965C7.4429 5.9397 7.41635 6.09638 7.47958 6.22298L7.93964 7.14297C7.87627 7.27294 7.81964 7.4129 7.76961 7.55958L6.79302 7.88292C6.65629 7.92957 6.56637 8.05633 6.56637 8.19966V9.51296C6.56637 9.65629 6.65629 9.7829 6.79302 9.8297L7.76961 10.1564C7.81964 10.2997 7.87627 10.4397 7.93964 10.573L7.47958 11.493C7.4162 11.623 7.43952 11.7763 7.54295 11.8764L8.46953 12.8029C8.56959 12.9062 8.72627 12.9295 8.85287 12.8663L9.77285 12.4062C9.90621 12.4696 10.0462 12.5262 10.1895 12.5763L10.5162 13.5529C10.5628 13.6896 10.6896 13.7795 10.8329 13.7795H11.8095V16.3928H9.44289V15.6594C9.43952 15.5196 9.34622 15.393 9.20949 15.3496L9.2096 15.3496ZM8.59962 10.4166C8.49956 10.2232 8.41301 10.0165 8.34626 9.79663C8.31633 9.69335 8.23623 9.61325 8.13295 9.57657L7.22633 9.27318V8.44313L8.13295 8.14312C8.23623 8.10982 8.31633 8.02649 8.34626 7.92306C8.41623 7.6964 8.49956 7.4897 8.59962 7.30647C8.65302 7.2098 8.65302 7.09654 8.60299 6.99987L8.17639 6.14647L8.76308 5.55979L9.61647 5.98638C9.71315 6.03304 9.8264 6.03304 9.92308 5.98301C10.1164 5.87973 10.3232 5.7964 10.543 5.72965C10.6463 5.69973 10.7264 5.61962 10.7631 5.51634L11.0665 4.60634H11.8031V6.58962C11.6964 6.57289 11.5898 6.56629 11.4831 6.56629C10.2131 6.56629 9.1831 7.59969 9.1831 8.86632C9.1831 10.1363 10.2165 11.1664 11.4831 11.1664C11.5898 11.1664 11.6998 11.1564 11.8031 11.143V13.1263L11.0697 13.1265L10.7663 12.2198C10.733 12.1166 10.6497 12.0398 10.5463 12.0065C10.3262 11.9399 10.1163 11.8532 9.9263 11.7532C9.82963 11.7031 9.71637 11.6998 9.61969 11.7498L8.7663 12.1666L8.17961 11.5765L8.60621 10.7231C8.65302 10.6264 8.65302 10.5132 8.59961 10.4165L8.59962 10.4166ZM11.8063 10.4566C11.6996 10.48 11.593 10.4933 11.4863 10.4933C10.5863 10.4933 9.85307 9.75994 9.85307 8.86007C9.85307 7.96005 10.5864 7.22683 11.4863 7.22683C11.5963 7.22683 11.703 7.24356 11.8063 7.26351V10.4566ZM1.66636 0.666764H10.8065C11.3565 0.666764 11.8064 1.1167 11.8064 1.66669V2.62336L0.66667 2.62352V1.66684C0.66667 1.11685 1.11323 0.66676 1.6666 0.66676L1.66636 0.666764ZM10.8065 20.3333H1.66636C1.11637 20.3333 0.666435 19.8834 0.666435 19.3334V17.0635H11.803V19.3334C11.8064 19.8833 11.3565 20.3333 10.8065 20.3333Z" fill="url(#paint2_linear_29_2310)"/>
<defs>
<linearGradient id="paint0_linear_29_2310" x1="2.76383" y1="1.26548" x2="2.80289" y2="2.19875" gradientUnits="userSpaceOnUse">
<stop stop-color="#71B951"/>
<stop offset="1" stop-color="#B8FA99"/>
</linearGradient>
<linearGradient id="paint1_linear_29_2310" x1="5.25603" y1="17.5683" x2="6.08213" y2="20.0717" gradientUnits="userSpaceOnUse">
<stop stop-color="#71B951"/>
<stop offset="1" stop-color="#B8FA99"/>
</linearGradient>
<linearGradient id="paint2_linear_29_2310" x1="-2" y1="-1.5" x2="10.5" y2="21" gradientUnits="userSpaceOnUse">
<stop stop-color="#71B951"/>
<stop offset="1" stop-color="#B8FA99"/>
</linearGradient>
</defs>
</svg>
