<svg width="22" height="21" viewBox="0 0 22 21" fill="none" xmlns="http://www.w3.org/2000/svg">
<path d="M20.2788 17.8647H20.0876V7.11963C20.0876 6.23096 19.3666 5.50992 18.4779 5.50992H14.6348C14.4537 5.50992 14.3095 5.65412 14.3095 5.83523C14.3095 6.01633 14.4537 6.16053 14.6348 6.16053H18.4781C19.0079 6.16053 19.4372 6.58973 19.4372 7.11963V17.8679H1.81085V7.11963C1.81085 6.58977 2.24344 6.16053 2.77335 6.16053L6.66682 6.16038C6.84792 6.16038 6.99212 6.01618 6.99212 5.83507C6.99212 5.65397 6.84792 5.50977 6.66682 5.50977L2.77335 5.50992C1.88468 5.50992 1.16028 6.23092 1.16028 7.11963V17.8679H0.969139C0.435876 17.8679 0 18.3039 0 18.837V19.0416C0 20.1214 0.878628 21.0001 1.96187 21.0001H19.2866C20.3664 21.0001 21.2485 20.1215 21.2485 19.0416V18.837C21.2483 18.3005 20.8123 17.8647 20.2791 17.8647L20.2788 17.8647ZM13.3201 18.5152V18.7868C13.3201 18.9612 13.1759 19.1054 13.0014 19.1054H8.24623C8.07176 19.1054 7.92756 18.9612 7.92756 18.7868V18.5152H13.3201ZM20.5973 19.0384C20.5973 19.7594 20.0105 20.3463 19.2861 20.3463H1.96131C1.24031 20.3463 0.65005 19.7594 0.65005 19.0384V18.8338C0.65005 18.6594 0.794251 18.5152 0.968716 18.5152H7.27681V18.7868C7.27681 19.32 7.71281 19.7559 8.24595 19.7559H13.0015C13.5348 19.7559 13.9707 19.3199 13.9707 18.7868V18.5152H20.2788C20.4532 18.5152 20.5974 18.6594 20.5974 18.8338L20.5973 19.0384Z" fill="url(#paint0_linear_27_2199)"/>
<path d="M3.72214 7.65635H7.9141C8.0952 7.65635 8.23941 7.51215 8.23941 7.33104C8.23941 7.14994 8.09521 7.00574 7.9141 7.00574H3.72214C3.13868 7.00574 2.66577 7.47865 2.66577 8.06211V16.1543C2.66577 16.7378 3.14192 17.2107 3.72214 17.2107H17.5324C18.1158 17.2107 18.5887 16.7378 18.5887 16.1543V8.06566C18.5887 7.4822 18.1158 7.00929 17.5324 7.00929H13.3104C13.1293 7.00929 12.9851 7.1535 12.9851 7.3346C12.9851 7.5157 13.1293 7.65991 13.3104 7.65991H17.5292C17.7538 7.65991 17.935 7.84101 17.935 8.06566V16.1579C17.935 16.3825 17.7539 16.5637 17.5292 16.5637L3.72254 16.5638C3.4979 16.5638 3.31678 16.3827 3.31678 16.158L3.31662 8.06582C3.31338 7.84118 3.49772 7.65666 3.72254 7.65666L3.72214 7.65635Z" fill="url(#paint1_linear_27_2199)"/>
<path d="M7.58866 5.71801C7.58866 6.24447 8.01786 6.67387 8.54112 6.67387H8.84296C9.05756 7.89466 8.70879 8.92415 7.75635 9.81946C7.62558 9.94019 7.49481 10.0643 7.37408 10.2186C6.5558 11.2683 6.30091 12.6299 6.59932 14.2564C6.45851 14.3033 6.32774 14.3771 6.22708 14.481C6.04598 14.6587 5.94531 14.9002 5.94531 15.1585C5.94531 15.685 6.37451 16.1144 6.90117 16.1144H14.3397C14.5946 16.1144 14.8393 16.0105 15.0138 15.8326C15.1949 15.6515 15.2921 15.4135 15.2921 15.1585C15.2921 14.7394 15.0172 14.3838 14.6381 14.2564C14.94 12.6299 14.6851 11.2717 13.8634 10.2186C13.746 10.0678 13.6119 9.94023 13.4676 9.80604C12.5286 8.92742 12.1833 7.89792 12.3979 6.67713H12.7031C12.958 6.67713 13.2027 6.57323 13.3772 6.39537C13.5583 6.21427 13.6556 5.97621 13.6556 5.72128C13.6556 5.30872 13.3906 4.95996 13.0218 4.82581C13.4141 4.30599 13.6321 3.67557 13.6321 3.01156C13.6321 1.35154 12.2806 0 10.6205 0C8.9605 0 7.60896 1.35154 7.60896 3.01156C7.60896 3.67561 7.82696 4.30939 8.21926 4.82581C8.08509 4.87275 7.96436 4.94655 7.86709 5.04381C7.68954 5.21843 7.58887 5.45989 7.58887 5.71806L7.58866 5.71801ZM14.5541 15.3699C14.5003 15.4236 14.4233 15.4571 14.3428 15.4571H6.90434C6.73667 15.4571 6.59911 15.3195 6.59911 15.1519C6.59911 15.0714 6.62922 14.9942 6.68959 14.9339C6.74331 14.8769 6.82036 14.8466 6.9008 14.8466H14.3357C14.5034 14.8466 14.641 14.9842 14.641 15.1519C14.6447 15.2357 14.6144 15.3095 14.554 15.3699H14.5541ZM13.045 10.2926C13.1624 10.3999 13.2697 10.5038 13.3569 10.6145C14.0678 11.5266 14.2825 12.7306 13.9975 14.1995H7.24984C6.96484 12.7306 7.17944 11.5266 7.89042 10.6145C7.97765 10.5038 8.08835 10.3999 8.21912 10.2757C9.28889 9.27296 9.72152 8.06237 9.5103 6.67067H11.7337C11.5257 8.06577 11.9583 9.27636 13.045 10.2926L13.045 10.2926ZM12.9175 5.93618C12.8638 5.99315 12.7867 6.02341 12.7063 6.02341H8.54119C8.37352 6.02341 8.23935 5.88585 8.23935 5.71818C8.23935 5.63434 8.26946 5.56054 8.32983 5.50018C8.38355 5.44645 8.4606 5.41295 8.54104 5.41295H12.7061C12.8772 5.41295 13.008 5.54711 13.008 5.71478C13.0083 5.79877 12.978 5.87581 12.9176 5.93618H12.9175ZM10.6237 0.647813C11.9249 0.647813 12.9846 1.70754 12.9846 3.00877C12.9846 3.68285 12.6996 4.31663 12.2032 4.76606H9.04421C8.54458 4.31663 8.26281 3.68285 8.26281 3.00877C8.26265 1.70754 9.32242 0.647813 10.6236 0.647813H10.6237Z" fill="url(#paint2_linear_27_2199)"/>
<path d="M10.8384 1.77427C11.338 1.77427 11.7405 2.18003 11.7405 2.67637C11.7405 2.85748 11.8847 3.00168 12.0658 3.00168C12.2469 3.00168 12.3911 2.85748 12.3911 2.67637C12.3911 1.81779 11.6936 1.12366 10.8384 1.12366C10.6573 1.12366 10.5131 1.26786 10.5131 1.44896C10.5131 1.63007 10.6573 1.77427 10.8384 1.77427Z" fill="url(#paint3_linear_27_2199)"/>
<defs>
<linearGradient id="paint0_linear_27_2199" x1="-1.16667" y1="6.80063" x2="13.4761" y2="25.5172" gradientUnits="userSpaceOnUse">
<stop stop-color="#F06C79"/>
<stop offset="1" stop-color="#DD66AC"/>
</linearGradient>
<linearGradient id="paint1_linear_27_2199" x1="1.79151" y1="7.85615" x2="11.0725" y2="21.3502" gradientUnits="userSpaceOnUse">
<stop stop-color="#F06C79"/>
<stop offset="1" stop-color="#DD66AC"/>
</linearGradient>
<linearGradient id="paint2_linear_27_2199" x1="5.43212" y1="1.34286" x2="18.5614" y2="8.43912" gradientUnits="userSpaceOnUse">
<stop stop-color="#F06C79"/>
<stop offset="1" stop-color="#DD66AC"/>
</linearGradient>
<linearGradient id="paint3_linear_27_2199" x1="10.4099" y1="1.28016" x2="12.2344" y2="2.98025" gradientUnits="userSpaceOnUse">
<stop stop-color="#F06C79"/>
<stop offset="1" stop-color="#DD66AC"/>
</linearGradient>
</defs>
</svg>
